<?xml version="1.0" encoding="iso-8859-1"?>
<!-- Uploaded to: SVG Repo, www.svgrepo.com, Generator: SVG Repo Mixer Tools -->
<svg fill="#000000" height="800px" width="800px" version="1.1" id="Layer_1" xmlns="http://www.w3.org/2000/svg" xmlns:xlink="http://www.w3.org/1999/xlink" 
	 viewBox="0 0 512.001 512.001" xml:space="preserve">
<g>
	<g>
		<path d="M487.68,262.88L200.107,152.907c-5.547-2.133-11.627,0.64-13.76,6.187c-0.427,1.173-0.747,2.453-0.747,3.84
			c0,10.773-17.6,21.76-56.853,21.76c-31.36,0-56.853-11.093-56.853-24.64c0-5.867-4.8-10.667-10.667-10.667h-25.28
			C14.08,149.28,0,164.64,0,188.32v163.627c0,5.867,4.8,10.667,10.667,10.667h490.667c5.867,0,10.667-4.8,10.667-10.667V289.76
			C512,277.707,503.787,268.64,487.68,262.88z M383.36,245.92l96.853,37.013c5.227,1.813,8,3.52,9.387,5.013H266.667
			c0.213-8.96,1.813-10.667,13.973-10.667h67.52C362.56,277.28,377.173,260.747,383.36,245.92z M21.333,188.32
			c0-17.707,10.667-17.707,14.613-17.707h16.427c7.36,21.227,36.693,35.307,76.373,35.307c50.24,0,68.373-15.787,74.773-28.8
			l41.173,15.787l-13.653,13.12c-4.267,4.053-4.373,10.88-0.32,15.04c4.053,4.16,10.88,4.373,15.04,0.32l20.907-20.053l14.613,5.547
			l-8,7.467c-4.053,4.267-3.947,10.987,0.32,15.04c3.947,3.733,10.133,3.947,14.293,0.427L303.36,215.2l60.267,23.04
			c-3.307,7.573-11.627,17.173-15.467,17.6h-67.52c-14.827,0-34.453,3.413-35.307,32H88c-5.013-33.067-33.6-61.76-66.667-66.987
			V188.32z M21.333,242.507c21.547,4.907,40.32,23.787,45.013,45.44H21.333V242.507z M21.333,341.28v-32h469.333v32H21.333z"/>
	</g>
</g>
</svg>